<?xml version="1.0" encoding="UTF-8"?><svg id="Calque_1" xmlns="http://www.w3.org/2000/svg" xmlns:xlink="http://www.w3.org/1999/xlink" viewBox="0 0 128 128"><defs><style>.cls-1{fill:url(#linear-gradient);}</style><linearGradient id="linear-gradient" x1="-2510.63" y1="-189.48" x2="-2455.6" y2="-189.48" gradientTransform="translate(-2342.49 -559.86) rotate(-161.19) scale(1 -1)" gradientUnits="userSpaceOnUse"><stop offset="0" stop-color="#ec297b"/><stop offset=".3" stop-color="#f2a71d"/><stop offset=".52" stop-color="#f9ec31"/><stop offset=".75" stop-color="#8bc53f"/><stop offset="1" stop-color="#00adee"/></linearGradient></defs><path class="cls-1" d="M42.66,53.98c-.25,1.71-.58,3.4-.72,5.12-.54,6.47-.63,12.94,.71,19.34,.11,.53,.39,1.02,.6,1.53l.26-.08c-.08-1.85-.2-3.69-.23-5.54-.07-3.64-.2-7.29-.09-10.92,.14-4.72,1.84-8.98,4.39-12.9,2.48-3.82,5.42-7.24,9.49-9.47,2.71-1.49,5.69-2.2,8.73-2.57,2.18-.26,4.39-.25,6.58-.34,.25-.01,.51,.08,.92,.15-.37,1.09-.73,2.12-1.07,3.16-3.8,11.25-7.6,22.49-11.4,33.74-1.98,5.84-3.98,11.67-5.94,17.51-.54,1.6-.41,3.27-.24,4.91,.76,7.32,4.85,12.46,10.77,16.39,.69,.46,1.44,.83,2.16,1.24,.95,.32,1.9,.65,2.84,.97,.13,0,.26-.04,.38-.02,2.92,.64,5.6,.1,7.9-1.81,.96-.8,1.68-1.89,2.51-2.85l.77-2.25c-.05-1.61,.08-3.25-.18-4.82-.51-3.05-2.03-5.68-3.93-8.08-2.13-2.69-4.51-5.11-7.64-6.69-3-1.52-6.13-2.3-9.5-1.95-.18,.02-.36,.04-.66,.07,.45-1.32,.87-2.56,1.29-3.79,4.38-12.81,8.75-25.62,13.13-38.43,2.48-7.24,4.97-14.47,7.46-21.7,1.25-3.63,2.51-7.26,3.77-10.89l-3.29-1.12c-.28,.82-.55,1.65-.86,2.46-1.39,3.61-3.22,6.99-6.2,9.51-2.12,1.79-4.44,3.36-6.79,4.84-3.96,2.49-8.09,4.71-12.02,7.25-4.38,2.83-8.2,6.29-10.83,10.88-.64,1.11-1.18,2.27-1.76,3.41-.43,1.25-.85,2.49-1.28,3.74Z"/></svg>